<svg width="25" height="26" viewBox="0 0 25 26" fill="none" xmlns="http://www.w3.org/2000/svg">
<path d="M21.3333 0.5C22.53 0.5 23.5 1.47005 23.5 2.66667V8C23.5 8.46024 23.1269 8.83333 22.6667 8.83333C22.2064 8.83333 21.8333 8.46024 21.8333 8V2.66667C21.8333 2.39052 21.6095 2.16667 21.3333 2.16667H2.66667C2.39053 2.16667 2.16667 2.39052 2.16667 2.66667V17.3333C2.16667 17.6095 2.39053 17.8333 2.66667 17.8333H7.33333C7.79357 17.8333 8.16667 18.2064 8.16667 18.6667C8.16667 19.1269 7.79357 19.5 7.33333 19.5H2.66667C1.47005 19.5 0.5 18.5299 0.5 17.3333V2.66667C0.5 1.47005 1.47005 0.5 2.66667 0.5H21.3333Z" fill="white"/>
<path d="M5.33333 6.66667C6.06971 6.66667 6.66667 6.06971 6.66667 5.33333C6.66667 4.59695 6.06971 4 5.33333 4C4.59695 4 4 4.59695 4 5.33333C4 6.06971 4.59695 6.66667 5.33333 6.66667Z" fill="white"/>
<path d="M10.6667 5.33333C10.6667 6.06971 10.0697 6.66667 9.33333 6.66667C8.59695 6.66667 8 6.06971 8 5.33333C8 4.59695 8.59695 4 9.33333 4C10.0697 4 10.6667 4.59695 10.6667 5.33333Z" fill="white"/>
<path fill-rule="evenodd" clip-rule="evenodd" d="M20 10.5378C18.8034 10.5378 17.8333 11.5078 17.8333 12.7044V15.3711C17.8333 16.5677 18.8034 17.5378 20 17.5378H22.6667C23.8633 17.5378 24.8333 16.5677 24.8333 15.3711V12.7044C24.8333 11.5078 23.8633 10.5378 22.6667 10.5378H20ZM19.5 12.7044C19.5 12.4283 19.7239 12.2044 20 12.2044H22.6667C22.9428 12.2044 23.1667 12.4283 23.1667 12.7044V15.3711C23.1667 15.6472 22.9428 15.8711 22.6667 15.8711H20C19.7239 15.8711 19.5 15.6472 19.5 15.3711V12.7044Z" fill="white"/>
<path fill-rule="evenodd" clip-rule="evenodd" d="M17.8333 20.7044C17.8333 19.5078 18.8034 18.5378 20 18.5378H22.6667C23.8633 18.5378 24.8333 19.5078 24.8333 20.7044V23.3711C24.8333 24.5677 23.8633 25.5378 22.6667 25.5378H20C18.8034 25.5378 17.8333 24.5677 17.8333 23.3711V20.7044ZM20 20.2044C19.7239 20.2044 19.5 20.4283 19.5 20.7044V23.3711C19.5 23.6472 19.7239 23.8711 20 23.8711H22.6667C22.9428 23.8711 23.1667 23.6472 23.1667 23.3711V20.7044C23.1667 20.4283 22.9428 20.2044 22.6667 20.2044H20Z" fill="white"/>
<path fill-rule="evenodd" clip-rule="evenodd" d="M12 10.5378C10.8034 10.5378 9.83333 11.5078 9.83333 12.7044V23.3711C9.83333 24.5677 10.8034 25.5378 12 25.5378H14.6667C15.8633 25.5378 16.8333 24.5677 16.8333 23.3711V12.7044C16.8333 11.5078 15.8633 10.5378 14.6667 10.5378H12ZM11.5 12.7044C11.5 12.4283 11.7239 12.2044 12 12.2044H14.6667C14.9428 12.2044 15.1667 12.4283 15.1667 12.7044V23.3711C15.1667 23.6472 14.9428 23.8711 14.6667 23.8711H12C11.7239 23.8711 11.5 23.6472 11.5 23.3711V12.7044Z" fill="white"/>
</svg>
