<svg width="24" height="24" viewBox="0 0 18 18" fill="none" xmlns="http://www.w3.org/2000/svg">
<path d="M9 0H0V18H9C13.5013 18 18 13.9704 18 9.00123C18 4.0321 13.5021 0 9 0ZM9 13.0896C8.18591 13.0894 7.39018 12.8493 6.71342 12.3998C6.03666 11.9502 5.50928 11.3113 5.19796 10.5639C4.88664 9.81649 4.80537 8.99415 4.96442 8.20086C5.12348 7.40757 5.51571 6.67895 6.09153 6.10716C6.66735 5.53537 7.40088 5.14607 8.19938 4.98851C8.99787 4.83095 9.82545 4.9122 10.5775 5.22197C11.3295 5.53175 11.9722 6.05615 12.4242 6.72885C12.8763 7.40155 13.1174 8.19235 13.1172 9.00123C13.1172 9.53835 13.0108 10.0702 12.8038 10.5664C12.5969 11.0626 12.2936 11.5135 11.9113 11.8931C11.5289 12.2728 11.075 12.5739 10.5755 12.7792C10.0759 12.9845 9.54057 13.09 9 13.0896Z" fill="url(#paint0_linear_15412_85374)"/>
<defs>
<linearGradient id="paint0_linear_15412_85374" x1="0" y1="9.00009" x2="18" y2="9.00009" gradientUnits="userSpaceOnUse">
<stop stop-color="#FF593D"/>
<stop offset="1" stop-color="#FF7751"/>
</linearGradient>
</defs>
</svg>
