<svg width="24" height="24" viewBox="0 0 24 24" fill="none" xmlns="http://www.w3.org/2000/svg">
<g clip-path="url(#clip0_15398_13939)">
<path fill-rule="evenodd" clip-rule="evenodd" d="M15.9398 16.3135V8.5562C15.9398 8.42355 15.8871 8.29633 15.7933 8.20254C15.6995 8.10875 15.5723 8.05606 15.4396 8.05606H7.69141V0.0488281H23.438C23.5037 0.0488152 23.5687 0.0617446 23.6294 0.0868781C23.6901 0.112012 23.7453 0.148857 23.7918 0.195309C23.8382 0.241762 23.8751 0.296912 23.9002 0.35761C23.9254 0.418308 23.9383 0.483364 23.9383 0.549065V16.3135H15.9398Z" fill="#8E75FF"/>
<path opacity="0.405" fill-rule="evenodd" clip-rule="evenodd" d="M7.69204 0.0488281V8.05606H0.296975C0.247518 8.05605 0.199175 8.04138 0.158054 8.0139C0.116932 7.98642 0.0848781 7.94737 0.0659409 7.90168C0.0470037 7.856 0.0420334 7.80572 0.051658 7.75721C0.0612825 7.7087 0.0850701 7.66413 0.120015 7.62913L7.69204 0.0488281ZM15.9405 23.7163V16.3135H23.9389L16.3675 23.8931C16.3325 23.928 16.288 23.9519 16.2395 23.9615C16.1909 23.9712 16.1407 23.9662 16.095 23.9473C16.0493 23.9284 16.0102 23.8963 15.9827 23.8552C15.9552 23.8141 15.9405 23.7658 15.9405 23.7163ZM7.69204 8.05606H15.6903C15.7566 8.05606 15.8203 8.08241 15.8672 8.1293C15.9141 8.17619 15.9405 8.2398 15.9405 8.30613V16.3135H8.19228C8.12659 16.3135 8.06154 16.3005 8.00085 16.2754C7.94016 16.2502 7.88501 16.2134 7.83856 16.1669C7.79211 16.1205 7.75526 16.0654 7.73012 16.0047C7.70498 15.944 7.69204 15.8789 7.69204 15.8132V8.05606Z" fill="#8E75FF"/>
</g>
<defs>
<clipPath id="clip0_15398_13939">
<rect width="24" height="24" fill="white"/>
</clipPath>
</defs>
</svg>
