<svg width="654" height="261" viewBox="0 0 654 261" fill="none" xmlns="http://www.w3.org/2000/svg">
<g filter="url(#filter0_d_229_18)">
<g filter="url(#filter1_d_229_18)">
<path fill-rule="evenodd" clip-rule="evenodd" d="M283.69 230.761H315.827V62.9351L283.69 95.0157V230.761ZM199.874 194.213C199.874 205.089 205.229 208.352 220.182 208.352C232.011 208.352 237.366 202.696 237.366 191.82V180.509H221.298C205.229 180.509 199.874 184.424 199.874 194.213ZM237.145 218.359C231.566 226.625 223.754 232.281 206.347 232.281C181.129 232.281 168.853 220.535 168.853 196.173C168.853 171.375 182.468 159.195 222.415 159.195H237.145V151.146C237.145 142.444 235.137 137.223 222.639 137.223C209.695 137.223 206.793 140.27 204.785 150.275L173.541 145.49C178.228 121.997 190.055 112.427 223.754 112.427C258.568 112.427 268.611 125.696 268.611 152.015V230.759H237.145V218.359ZM161.534 194.652C161.534 216.405 151.713 232.284 112.658 232.284C78.7365 232.284 65.1231 222.931 62.2222 199.656L93.0196 195.088C94.8048 206.616 99.0449 209.009 113.104 209.009C125.827 209.009 130.067 205.964 130.067 199.003C130.067 190.519 125.155 188.345 112.435 185.951C111.422 185.779 110.391 185.609 109.348 185.436C89.2411 182.106 64.242 177.966 64.4535 149.842C64.4535 127.004 76.9513 112.648 112.435 112.648C144.795 112.648 157.069 123.74 159.748 145.71L128.058 150.495C126.941 140.272 123.594 136.791 111.543 136.791C101.722 136.791 95.6969 139.403 95.6969 146.363C95.6969 155.717 102.615 157.021 117.791 159.631C137.654 162.894 161.534 167.897 161.534 194.652ZM359.912 153.968V159.84H396.737V153.968C396.737 142.656 392.272 136.782 378.658 136.782C364.599 136.782 359.912 143.745 359.912 153.968ZM427.756 197.692C425.525 215.094 415.705 232.497 378.658 232.497C341.612 232.497 328.668 212.267 328.668 188.122V156.799C328.668 132.002 341.389 112.424 378.658 112.424C416.374 112.424 427.756 131.783 427.756 160.932V181.814H359.911V191.384C359.911 201.39 363.26 209.003 378.658 209.003C393.834 209.003 395.843 203.565 397.182 193.124L427.756 197.692ZM489.816 232.5C526.639 232.5 541.814 213.576 541.814 188.125V156.803C541.814 130.918 526.639 112.427 489.816 112.427C452.991 112.427 438.263 130.918 438.263 156.803V188.125C438.263 213.576 452.768 232.5 489.816 232.5ZM489.809 207.263C476.864 207.263 470.393 200.52 470.393 189.644V156.146C470.393 145.053 476.864 138.31 489.809 138.31C502.753 138.31 509.671 145.053 509.671 156.146V189.644C509.671 200.52 502.753 207.263 489.809 207.263ZM585.219 145.079H602.443L633.841 113H584.479L553.082 145.079V229.534H585.219V145.079Z" fill="white"/>
<path fill-rule="evenodd" clip-rule="evenodd" d="M154.079 12.5L110.98 57.5905H217.449L260.548 12.5H154.079Z" fill="#036DFF"/>
<path fill-rule="evenodd" clip-rule="evenodd" d="M61.7342 27.8827C62.6047 27.0112 63.7859 26.5215 65.0176 26.5215H205.047C206.924 26.5215 208.616 27.6515 209.334 29.3849C210.053 31.1183 209.657 33.1139 208.331 34.4415L167.954 74.8675C167.083 75.739 165.902 76.2287 164.67 76.2287H24.6408C22.7643 76.2287 21.0725 75.0986 20.3539 73.3652C19.6353 71.6319 20.0313 69.6363 21.3573 68.3086L61.7342 27.8827ZM66.9415 35.8027L35.8346 66.9474H162.747L193.853 35.8027H66.9415Z" fill="white"/>
</g>
</g>
<defs>
<filter id="filter0_d_229_18" x="16" y="12.5" width="621.841" height="228" filterUnits="userSpaceOnUse" color-interpolation-filters="sRGB">
<feFlood flood-opacity="0" result="BackgroundImageFix"/>
<feColorMatrix in="SourceAlpha" type="matrix" values="0 0 0 0 0 0 0 0 0 0 0 0 0 0 0 0 0 0 127 0" result="hardAlpha"/>
<feOffset dy="4"/>
<feGaussianBlur stdDeviation="2"/>
<feComposite in2="hardAlpha" operator="out"/>
<feColorMatrix type="matrix" values="0 0 0 0 0 0 0 0 0 0 0 0 0 0 0 0 0 0 0.25 0"/>
<feBlend mode="normal" in2="BackgroundImageFix" result="effect1_dropShadow_229_18"/>
<feBlend mode="normal" in="SourceGraphic" in2="effect1_dropShadow_229_18" result="shape"/>
</filter>
<filter id="filter1_d_229_18" x="0" y="0.5" width="653.841" height="260" filterUnits="userSpaceOnUse" color-interpolation-filters="sRGB">
<feFlood flood-opacity="0" result="BackgroundImageFix"/>
<feColorMatrix in="SourceAlpha" type="matrix" values="0 0 0 0 0 0 0 0 0 0 0 0 0 0 0 0 0 0 127 0" result="hardAlpha"/>
<feOffset dy="8"/>
<feGaussianBlur stdDeviation="10"/>
<feComposite in2="hardAlpha" operator="out"/>
<feColorMatrix type="matrix" values="0 0 0 0 0 0 0 0 0 0 0 0 0 0 0 0 0 0 0.25 0"/>
<feBlend mode="normal" in2="BackgroundImageFix" result="effect1_dropShadow_229_18"/>
<feBlend mode="normal" in="SourceGraphic" in2="effect1_dropShadow_229_18" result="shape"/>
</filter>
</defs>
</svg>
