<svg width="105" height="36" viewBox="0 0 105 36" fill="none" xmlns="http://www.w3.org/2000/svg">
<mask id="mask0_15056_2587" style="mask-type:luminance" maskUnits="userSpaceOnUse" x="0" y="1" width="105" height="35">
<path fill-rule="evenodd" clip-rule="evenodd" d="M0 1.30762H104.532V36H0V1.30762Z" fill="white"/>
</mask>
<g mask="url(#mask0_15056_2587)">
<path fill-rule="evenodd" clip-rule="evenodd" d="M17.3961 35.965C23.8159 35.965 25.4302 33.3727 25.4302 29.8214C25.4302 25.4534 21.5048 24.6367 18.2399 24.1039C15.7453 23.6778 14.608 23.4649 14.608 21.9378C14.608 20.8016 15.5985 20.3752 17.2127 20.3752C19.1937 20.3752 19.7439 20.9435 19.9275 22.6124L25.1367 21.8312C24.6963 18.2445 22.6787 16.4336 17.3594 16.4336C11.5266 16.4336 9.47225 18.7773 9.47225 22.5059C9.43568 27.3356 13.9845 27.8328 17.3594 28.4009C19.4503 28.7917 20.2577 29.1466 20.2577 30.5317C20.2577 31.6681 19.5607 32.1652 17.4695 32.1652C15.1584 32.1652 14.4614 31.7746 14.1679 29.8925L9.10547 30.6383C9.58231 34.4381 11.8201 35.965 17.3961 35.965Z" fill="#28234A"/>
<path fill-rule="evenodd" clip-rule="evenodd" d="M34.1859 32.058C31.7278 32.058 30.8477 31.5254 30.8477 29.7497C30.8477 28.1516 31.7278 27.5125 34.3693 27.5125H37.0106V29.3591C37.0106 31.1346 36.1302 32.058 34.1859 32.058ZM31.9131 35.9646C34.7746 35.9646 36.0587 35.0412 36.9758 33.6917V35.716H42.1481V22.8605C42.1481 18.5637 40.4973 16.3975 34.7746 16.3975C29.2351 16.3975 27.291 17.9599 26.5205 21.7953L31.6564 22.5765C31.9865 20.943 32.4635 20.4457 34.5912 20.4457C36.6456 20.4457 36.9758 21.298 36.9758 22.7187V24.0327H34.5544C27.9879 24.0327 25.75 26.0212 25.75 30.0696C25.75 34.0468 27.7678 35.9646 31.9131 35.9646Z" fill="#28234A"/>
<path fill-rule="evenodd" clip-rule="evenodd" d="M43.4688 35.7162H48.7515V8.31738L43.4688 13.5548V35.7162Z" fill="#28234A"/>
<path fill-rule="evenodd" clip-rule="evenodd" d="M55.2111 24.1386V23.1799C55.2111 21.5109 55.9816 20.3742 58.2927 20.3742C60.5305 20.3742 61.2644 21.3333 61.2644 23.1799V24.1386H55.2111ZM58.2916 36.0001C64.3814 36.0001 65.9955 33.159 66.3623 30.3181L61.3366 29.5723C61.1164 31.2769 60.7862 32.1647 58.2916 32.1647C55.7605 32.1647 55.21 30.9218 55.21 29.2883V27.7259H66.3623V24.3167C66.3623 19.558 64.4913 16.3975 58.2916 16.3975C52.1653 16.3975 50.0742 19.5936 50.0742 23.642V28.7557C50.0742 32.6975 52.2019 36.0001 58.2916 36.0001Z" fill="#28234A"/>
<path fill-rule="evenodd" clip-rule="evenodd" d="M76.1539 36.0002C82.2068 36.0002 84.7013 32.9107 84.7013 28.7558V23.6421C84.7013 19.4163 82.2068 16.3975 76.1539 16.3975C70.1007 16.3975 67.6797 19.4163 67.6797 23.6421V28.7558C67.6797 32.9107 70.0641 36.0002 76.1539 36.0002ZM76.1526 31.8806C74.0247 31.8806 72.9609 30.7799 72.9609 29.0042V23.5354C72.9609 21.7244 74.0247 20.6235 76.1526 20.6235C78.2803 20.6235 79.4174 21.7244 79.4174 23.5354V29.0042C79.4174 30.7799 78.2803 31.8806 76.1526 31.8806Z" fill="#28234A"/>
<path fill-rule="evenodd" clip-rule="evenodd" d="M94.1376 21.8172H91.3062V35.605H86.0236V21.8172H86.0234L91.1846 16.5801H99.2987L94.1376 21.8172Z" fill="#28234A"/>
</g>
<path fill-rule="evenodd" clip-rule="evenodd" d="M23.8667 0L16.9141 7.2443H34.0895L41.0422 0H23.8667Z" fill="#8AC4EB"/>
<path fill-rule="evenodd" clip-rule="evenodd" d="M9.49792 2.99707L2.98438 9.49196H25.5738L32.0873 2.99707H9.49792Z" stroke="#28234A" stroke-width="1.2182" stroke-linecap="round" stroke-linejoin="round"/>
</svg>
