<svg width="19" height="19" viewBox="0 0 19 19" fill="none" xmlns="http://www.w3.org/2000/svg">
    <path d="M16 0.375C16.8975 0.375 17.625 1.10254 17.625 2L17.625 3.89063C17.625 4.2358 17.3452 4.51563 17 4.51562C16.6548 4.51562 16.375 4.2358 16.375 3.89062L16.375 2C16.375 1.79289 16.2071 1.625 16 1.625H2C1.79289 1.625 1.625 1.79289 1.625 2V13C1.625 13.2071 1.79289 13.375 2 13.375H5C5.34518 13.375 5.625 13.6548 5.625 14C5.625 14.3452 5.34518 14.625 5 14.625H2C1.10254 14.625 0.375 13.8975 0.375 13V2C0.375 1.10254 1.10254 0.375 2 0.375H16Z"
          fill="#fff"/>
    <path d="M4 5C4.55228 5 5 4.55228 5 4C5 3.44772 4.55228 3 4 3C3.44771 3 3 3.44772 3 4C3 4.55228 3.44771 5 4 5Z"
          fill="#fff"/>
    <path d="M8 4C8 4.55228 7.55228 5 7 5C6.44771 5 6 4.55228 6 4C6 3.44772 6.44771 3 7 3C7.55228 3 8 3.44772 8 4Z"
          fill="#fff"/>
    <path d="M13.625 10.375V10C13.625 9.65482 13.3452 9.375 13 9.375C12.6548 9.375 12.375 9.65482 12.375 10V10.3797C11.5359 10.4436 10.875 11.1446 10.875 12C10.875 12.8975 11.6025 13.625 12.5 13.625H13.5C13.7071 13.625 13.875 13.7929 13.875 14C13.875 14.2071 13.7071 14.375 13.5 14.375H11.5C11.1548 14.375 10.875 14.6548 10.875 15C10.875 15.3452 11.1548 15.625 11.5 15.625H12.375V16C12.375 16.3452 12.6548 16.625 13 16.625C13.3452 16.625 13.625 16.3452 13.625 16V15.6203C14.4641 15.5564 15.125 14.8554 15.125 14C15.125 13.1025 14.3975 12.375 13.5 12.375H12.5C12.2929 12.375 12.125 12.2071 12.125 12C12.125 11.7929 12.2929 11.625 12.5 11.625H14.5C14.8452 11.625 15.125 11.3452 15.125 11C15.125 10.6548 14.8452 10.375 14.5 10.375H13.625Z"
          fill="#fff"/>
    <path fill-rule="evenodd" clip-rule="evenodd"
          d="M18.625 8.96838V17C18.625 17.8975 17.8975 18.625 17 18.625H9C8.10254 18.625 7.375 17.8975 7.375 17V7C7.375 6.10254 8.10254 5.375 9 5.375H14.6379C15.0181 5.375 15.3862 5.50828 15.6782 5.75164L18.0403 7.72002C18.4108 8.02876 18.625 8.48611 18.625 8.96838ZM8.625 7C8.625 6.79289 8.79289 6.625 9 6.625H13.875V8C13.875 8.89746 14.6025 9.625 15.5 9.625H17.375V17C17.375 17.2071 17.2071 17.375 17 17.375H9C8.79289 17.375 8.625 17.2071 8.625 17V7ZM16.8737 8.375H15.5C15.2929 8.375 15.125 8.20711 15.125 8V6.91773L16.8737 8.375Z"
          fill="#fff"/>
</svg>
