<svg xmlns="http://www.w3.org/2000/svg" width="24" height="23" viewBox="0 0 24 23" fill="none">
<path d="M23.5 2.66667C23.5 1.47005 22.53 0.5 21.3333 0.5H2.66667C1.47005 0.5 0.5 1.47005 0.5 2.66667V17.3333C0.5 18.53 1.47005 19.5 2.66667 19.5H8C8.46024 19.5 8.83333 19.1269 8.83333 18.6667C8.83333 18.2064 8.46024 17.8333 8 17.8333H2.66667C2.39053 17.8333 2.16667 17.6095 2.16667 17.3333V2.66667C2.16667 2.39052 2.39053 2.16667 2.66667 2.16667H21.3333C21.6095 2.16667 21.8333 2.39052 21.8333 2.66667L21.8333 10.5208C21.8333 10.9811 22.2064 11.3542 22.6667 11.3542C23.1269 11.3542 23.5 10.9811 23.5 10.5208L23.5 2.66667Z" fill="white"/>
<path fill-rule="evenodd" clip-rule="evenodd" d="M9.83333 15.3333C9.83333 12.2958 12.2958 9.83333 15.3333 9.83333C18.3709 9.83333 20.8333 12.2958 20.8333 15.3333C20.8333 16.5515 20.4373 17.6771 19.767 18.5885L22.5893 21.4107C22.9147 21.7362 22.9147 22.2638 22.5893 22.5893C22.2638 22.9147 21.7362 22.9147 21.4107 22.5893L18.5885 19.767C17.6771 20.4373 16.5515 20.8333 15.3333 20.8333C12.2958 20.8333 9.83333 18.3709 9.83333 15.3333ZM15.3333 11.5C13.2162 11.5 11.5 13.2162 11.5 15.3333C11.5 17.4504 13.2162 19.1667 15.3333 19.1667C17.4504 19.1667 19.1667 17.4504 19.1667 15.3333C19.1667 13.2162 17.4504 11.5 15.3333 11.5Z" fill="white"/>
<path d="M6.66667 5.33333C6.66667 6.06971 6.06971 6.66667 5.33333 6.66667C4.59695 6.66667 4 6.06971 4 5.33333C4 4.59695 4.59695 4 5.33333 4C6.06971 4 6.66667 4.59695 6.66667 5.33333Z" fill="white"/>
<path d="M9.33333 6.66667C10.0697 6.66667 10.6667 6.06971 10.6667 5.33333C10.6667 4.59695 10.0697 4 9.33333 4C8.59695 4 8 4.59695 8 5.33333C8 6.06971 8.59695 6.66667 9.33333 6.66667Z" fill="white"/>
</svg>
