<svg width="32" height="32" viewBox="0 0 32 32" fill="none" xmlns="http://www.w3.org/2000/svg">
<path d="M25.3333 4.5C26.53 4.5 27.5 5.47005 27.5 6.66667V10.6667C27.5 11.1269 27.1269 11.5 26.6667 11.5C26.2064 11.5 25.8333 11.1269 25.8333 10.6667V6.66667C25.8333 6.39052 25.6095 6.16667 25.3333 6.16667H6.66667C6.39053 6.16667 6.16667 6.39052 6.16667 6.66667V21.3333C6.16667 21.6095 6.39053 21.8333 6.66667 21.8333H8.66667C9.1269 21.8333 9.5 22.2064 9.5 22.6667C9.5 23.1269 9.1269 23.5 8.66667 23.5H6.66667C5.47005 23.5 4.5 22.53 4.5 21.3333V6.66667C4.5 5.47005 5.47005 4.5 6.66667 4.5H25.3333Z" fill="white"/>
<path d="M9.33333 10.6667C10.0697 10.6667 10.6667 10.0697 10.6667 9.33333C10.6667 8.59695 10.0697 8 9.33333 8C8.59695 8 8 8.59695 8 9.33333C8 10.0697 8.59695 10.6667 9.33333 10.6667Z" fill="white"/>
<path d="M14.6667 9.33333C14.6667 10.0697 14.0697 10.6667 13.3333 10.6667C12.597 10.6667 12 10.0697 12 9.33333C12 8.59695 12.597 8 13.3333 8C14.0697 8 14.6667 8.59695 14.6667 9.33333Z" fill="white"/>
<path fill-rule="evenodd" clip-rule="evenodd" d="M13.3333 13.8333C12.1367 13.8333 11.1667 14.8034 11.1667 16V25.3333C11.1667 26.53 12.1367 27.5 13.3333 27.5H26.6667C27.8633 27.5 28.8333 26.53 28.8333 25.3333V16C28.8333 14.8034 27.8633 13.8333 26.6667 13.8333H13.3333ZM12.8333 25.3333V19.5H16.5V25.8333H13.3333C13.0572 25.8333 12.8333 25.6095 12.8333 25.3333ZM12.8333 16V17.8333H16.5V15.5H13.3333C13.0572 15.5 12.8333 15.7239 12.8333 16ZM26.6667 25.8333H18.1667V19.5H27.1667V25.3333C27.1667 25.6095 26.9428 25.8333 26.6667 25.8333ZM18.1667 17.8333H27.1667V16C27.1667 15.7239 26.9428 15.5 26.6667 15.5H18.1667V17.8333Z" fill="white"/>
</svg>
