<svg width="27" height="25" viewBox="0 0 27 25" fill="none" xmlns="http://www.w3.org/2000/svg">
<path d="M23.5 2.66667C23.5 1.47005 22.5299 0.5 21.3333 0.5H2.66667C1.47005 0.5 0.5 1.47005 0.5 2.66667V17.3333C0.5 18.53 1.47005 19.5 2.66667 19.5H5.33333C5.79357 19.5 6.16666 19.1269 6.16666 18.6667C6.16666 18.2064 5.79357 17.8333 5.33333 17.8333H2.66667C2.39052 17.8333 2.16667 17.6095 2.16667 17.3333V2.66667C2.16667 2.39052 2.39052 2.16667 2.66667 2.16667H21.3333C21.6095 2.16667 21.8333 2.39052 21.8333 2.66667L21.8333 7.85417C21.8333 8.3144 22.2064 8.6875 22.6667 8.6875C23.1269 8.6875 23.5 8.3144 23.5 7.85417L23.5 2.66667Z" fill="white"/>
<path d="M6.66666 5.33333C6.66666 6.06971 6.06971 6.66667 5.33333 6.66667C4.59695 6.66667 4 6.06971 4 5.33333C4 4.59695 4.59695 4 5.33333 4C6.06971 4 6.66666 4.59695 6.66666 5.33333Z" fill="white"/>
<path d="M10.6667 5.33333C10.6667 6.06971 10.0697 6.66667 9.33333 6.66667C8.59695 6.66667 8 6.06971 8 5.33333C8 4.59695 8.59695 4 9.33333 4C10.0697 4 10.6667 4.59695 10.6667 5.33333Z" fill="white"/>
<path d="M26.6667 13.3333C26.6667 14.8061 25.4728 16 24 16C22.5272 16 21.3333 14.8061 21.3333 13.3333C21.3333 11.8606 22.5272 10.6667 24 10.6667C25.4728 10.6667 26.6667 11.8606 26.6667 13.3333Z" fill="white"/>
<path fill-rule="evenodd" clip-rule="evenodd" d="M20.0869 12.5H10.6667C9.47005 12.5 8.5 13.47 8.5 14.6667V15.9813C8.49973 15.9936 8.49973 16.0058 8.5 16.0181V22.6667C8.5 23.8633 9.47005 24.8333 10.6667 24.8333H22.6667C23.8633 24.8333 24.8333 23.8633 24.8333 22.6667V17.2464C24.5645 17.3034 24.2858 17.3333 24 17.3333C22.9691 17.3333 22.0294 16.9434 21.3201 16.3029L16.8736 18.3241C16.7421 18.3839 16.5912 18.3839 16.4598 18.3241L10.1667 15.4636V14.6667C10.1667 14.3905 10.3905 14.1667 10.6667 14.1667H20.0869C20.03 13.8979 20 13.6191 20 13.3333C20 13.0476 20.03 12.7688 20.0869 12.5ZM10.1667 22.6667V17.2944L15.7701 19.8414C16.3398 20.1003 16.9936 20.1003 17.5632 19.8414L23.1667 17.2944V22.6667C23.1667 22.9428 22.9428 23.1667 22.6667 23.1667H10.6667C10.3905 23.1667 10.1667 22.9428 10.1667 22.6667Z" fill="white"/>
</svg>
