<svg width="20" height="19" viewBox="0 0 20 19" fill="none" xmlns="http://www.w3.org/2000/svg">
<path d="M4 4.625C4.55228 4.625 5 4.17728 5 3.625C5 3.07272 4.55228 2.625 4 2.625C3.44772 2.625 3 3.07272 3 3.625C3 4.17728 3.44772 4.625 4 4.625Z" fill="#4C5C6D"/>
<path d="M9 3.625C9 4.17728 8.55229 4.625 8 4.625C7.44772 4.625 7 4.17728 7 3.625C7 3.07272 7.44772 2.625 8 2.625C8.55229 2.625 9 3.07272 9 3.625Z" fill="#4C5C6D"/>
<path d="M12 4.625C12.5523 4.625 13 4.17728 13 3.625C13 3.07272 12.5523 2.625 12 2.625C11.4477 2.625 11 3.07272 11 3.625C11 4.17728 11.4477 4.625 12 4.625Z" fill="#4C5C6D"/>
<path fill-rule="evenodd" clip-rule="evenodd" d="M2 0C1.10254 0 0.375 0.727538 0.375 1.625V5.625C0.375 6.52246 1.10254 7.25 2 7.25H18C18.8975 7.25 19.625 6.52246 19.625 5.625V1.625C19.625 0.727537 18.8975 0 18 0H2ZM1.625 1.625C1.625 1.41789 1.79289 1.25 2 1.25H18C18.2071 1.25 18.375 1.41789 18.375 1.625V5.625C18.375 5.83211 18.2071 6 18 6H2C1.79289 6 1.625 5.83211 1.625 5.625V1.625Z" fill="#4C5C6D"/>
<path d="M5.5 9C5.84518 9 6.125 9.27982 6.125 9.625C6.125 9.97018 5.84518 10.25 5.5 10.25H2.00001C1.7929 10.25 1.62501 10.4179 1.62501 10.625V14.625C1.62501 14.8321 1.7929 15 2.00001 15H5.5C5.84518 15 6.125 15.2798 6.125 15.625C6.125 15.9702 5.84518 16.25 5.5 16.25H2.00001C1.10254 16.25 0.375008 15.5225 0.375008 14.625V10.625C0.375008 9.72754 1.10254 9 2.00001 9H5.5Z" fill="#4C5C6D"/>
<path d="M5 12.625C5 13.1773 4.55228 13.625 4 13.625C3.44772 13.625 3 13.1773 3 12.625C3 12.0727 3.44772 11.625 4 11.625C4.55228 11.625 5 12.0727 5 12.625Z" fill="#4C5C6D"/>
<path fill-rule="evenodd" clip-rule="evenodd" d="M7.375 10.625C7.375 9.72754 8.10254 9 9 9H18C18.8975 9 19.625 9.72754 19.625 10.625V11.6053C19.6254 11.6183 19.6254 11.6313 19.625 11.6443V16.625C19.625 17.5225 18.8975 18.25 18 18.25H9C8.10254 18.25 7.375 17.5225 7.375 16.625V11.6251C7.375 11.6249 7.375 11.6253 7.375 11.6251V10.625ZM8.625 12.5957V16.625C8.625 16.8321 8.79289 17 9 17H18C18.2071 17 18.375 16.8321 18.375 16.625V12.5958L14.1726 14.506C13.7453 14.7002 13.255 14.7002 12.8277 14.506L8.625 12.5957ZM18.375 11.2228L13.6553 13.3681C13.5567 13.4129 13.4436 13.4129 13.345 13.3681L8.625 11.2226V10.625C8.625 10.4179 8.79289 10.25 9 10.25H18C18.2071 10.25 18.375 10.4179 18.375 10.625V11.2228Z" fill="#4C5C6D"/>
</svg>
