<svg width="32" height="32" viewBox="0 0 32 32" fill="none" xmlns="http://www.w3.org/2000/svg">
<path d="M27.5 6.66667C27.5 5.47005 26.53 4.5 25.3333 4.5H6.66667C5.47005 4.5 4.5 5.47005 4.5 6.66667V21.3333C4.5 22.53 5.47005 23.5 6.66667 23.5H10.6667C11.1269 23.5 11.5 23.1269 11.5 22.6667C11.5 22.2064 11.1269 21.8333 10.6667 21.8333H6.66667C6.39053 21.8333 6.16667 21.6095 6.16667 21.3333V6.66667C6.16667 6.39052 6.39053 6.16667 6.66667 6.16667H25.3333C25.6095 6.16667 25.8333 6.39053 25.8333 6.66667L25.8333 9.1875C25.8333 9.64774 26.2064 10.0208 26.6667 10.0208C27.1269 10.0208 27.5 9.64774 27.5 9.1875L27.5 6.66667Z" fill="white"/>
<path d="M10.6667 9.33333C10.6667 10.0697 10.0697 10.6667 9.33333 10.6667C8.59695 10.6667 8 10.0697 8 9.33333C8 8.59695 8.59695 8 9.33333 8C10.0697 8 10.6667 8.59695 10.6667 9.33333Z" fill="white"/>
<path d="M13.3333 10.6667C14.0697 10.6667 14.6667 10.0697 14.6667 9.33333C14.6667 8.59695 14.0697 8 13.3333 8C12.597 8 12 8.59695 12 9.33333C12 10.0697 12.597 10.6667 13.3333 10.6667Z" fill="white"/>
<path d="M19.3333 19.3333C20.0697 19.3333 20.6667 18.7364 20.6667 18C20.6667 17.2636 20.0697 16.6667 19.3333 16.6667C18.597 16.6667 18 17.2636 18 18C18 18.7364 18.597 19.3333 19.3333 19.3333Z" fill="white"/>
<path d="M26 23.3333C26 24.0697 25.403 24.6667 24.6667 24.6667C23.9303 24.6667 23.3333 24.0697 23.3333 23.3333C23.3333 22.597 23.9303 22 24.6667 22C25.403 22 26 22.597 26 23.3333Z" fill="white"/>
<path d="M19.9226 23.9226L25.2559 18.5893C25.5814 18.2638 25.5814 17.7362 25.2559 17.4107C24.9305 17.0853 24.4028 17.0853 24.0774 17.4107L18.7441 22.7441C18.4186 23.0695 18.4186 23.5972 18.7441 23.9226C19.0695 24.248 19.5972 24.248 19.9226 23.9226Z" fill="white"/>
<path fill-rule="evenodd" clip-rule="evenodd" d="M13.8333 20.6667C13.8333 16.1563 17.4897 12.5 22 12.5C26.5103 12.5 30.1667 16.1563 30.1667 20.6667C30.1667 25.177 26.5103 28.8333 22 28.8333C17.4897 28.8333 13.8333 25.177 13.8333 20.6667ZM22 14.1667C18.4101 14.1667 15.5 17.0768 15.5 20.6667C15.5 24.2565 18.4101 27.1667 22 27.1667C25.5898 27.1667 28.5 24.2565 28.5 20.6667C28.5 17.0768 25.5898 14.1667 22 14.1667Z" fill="white"/>
</svg>
