<svg width="24" height="24" viewBox="0 0 24 24" fill="none" xmlns="http://www.w3.org/2000/svg">
<path d="M12.0311 16.7003C12.03 16.7038 11.0943 15.5566 10.5477 14.9375L9.77344 16.7635C10.8866 18.4222 11.6224 19.8479 12.0262 20.5322C12.8161 19.1954 14.7411 15.226 18.7304 11.5125L18.2901 10.4746C15.7002 12.3888 13.4946 14.835 12.0311 16.7003Z" fill="#059BD2"/>
<path d="M17.8392 21.0726H20.9993L18.2114 14.4004C17.3993 15.2643 16.6944 16.1188 16.084 16.933L17.8392 21.0726Z" fill="#FC6600"/>
<path d="M13.4218 2.93945H13.4024H10.6489H10.6309L3.05273 21.0742H6.21315L11.693 8.14952L11.9524 7.44813H12.1L12.3593 8.14952L13.9829 11.9801C14.7062 11.261 15.4916 10.5478 16.3215 9.87834L13.4218 2.93945Z" fill="#FC6600"/>
</svg>
