<svg width="409" height="137" viewBox="0 0 409 137" fill="none" xmlns="http://www.w3.org/2000/svg">
<g clip-path="url(#clip0)">
<path fill-rule="evenodd" clip-rule="evenodd" d="M167.17 95.75C164.97 97.06 159.17 97.63 156.32 97.63C148.33 97.63 143.52 93.47 143.52 86.38V50.32L138.79 49.83V39.48H158.24V82.46C158.24 84.91 159.67 85.97 162.52 85.97H165.54L167.17 95.75Z" fill="#002E42"/>
<path fill-rule="evenodd" clip-rule="evenodd" d="M242.2 65.25H237.39C232.82 65.25 231.35 66.31 231.35 70.06C231.35 73.81 232.98 75.36 237.39 75.36C241.87 75.36 243.26 73.73 243.26 69.98C243.26 67.69 242.85 66.23 242.2 65.25ZM256.15 65.25C257.7 66.8 258.11 68.76 258.11 70.71C258.11 79.27 251.83 83.76 237.31 83.76C235.27 83.76 231.84 83.52 231.76 83.52C230.93 83.52 230.75 84 230.69 84.19C230.12 86.13 231.68 86.42 235.68 87.12L247.17 88.82C256.72 90.29 259.08 94.77 259.08 100.41C259.08 107.75 255.09 113.13 236.9 113.13C230.54 113.13 223.44 112.4 217.49 111.42V101.47C224.66 102.04 230.36 102.53 237.05 102.53C242.51 102.53 244.57 102.36 244.57 100.33C244.65 98.7 242.72 98.22 238.45 97.51L227.92 95.85C221.07 94.62 219.03 90.71 219.19 86.96C219.27 84.68 220.41 82.47 222.37 81.09C218.05 78.81 216.09 75.06 216.09 69.75C216.09 59.15 223.84 56.05 237.46 56.05H264.03V65.27H256.15V65.25Z" fill="#002E42"/>
<path fill-rule="evenodd" clip-rule="evenodd" d="M349.8 56.29H342.8H337.89V59.54V59.69V65.74V68.99H342.8V86.47V96.83H357.57V86.47V56.29H349.8Z" fill="#002E42"/>
<path d="M348.42 36.24C353.01 36.24 356.23 39.38 356.23 43.8C356.23 48.13 353 51.27 348.42 51.27C343.92 51.27 340.69 48.13 340.69 43.8C340.69 39.38 343.92 36.24 348.42 36.24Z" fill="#002E42"/>
<path d="M324.6 81.84C329.19 81.84 332.41 84.98 332.41 89.4C332.41 93.73 329.18 96.87 324.6 96.87C320.1 96.87 316.87 93.73 316.87 89.4C316.87 84.98 320.1 81.84 324.6 81.84Z" fill="#002E42"/>
<path d="M190.07 54.89C177.3 54.89 168.14 63.8 168.14 76.34C168.14 88.63 177.3 97.55 190.07 97.55C203.08 97.55 212.24 88.63 212.24 76.34C212.24 63.8 203.08 54.89 190.07 54.89ZM190.14 85.16C184.79 85.16 180.95 81.42 180.95 76.27C180.95 71.02 184.79 67.28 190.14 67.28C195.59 67.28 199.43 71.02 199.43 76.27C199.43 81.42 195.59 85.16 190.14 85.16Z" fill="#002E42"/>
<path d="M386 55.15C373.23 55.15 364.07 64.06 364.07 76.6C364.07 88.89 373.23 97.81 386 97.81C399.01 97.81 408.17 88.89 408.17 76.6C408.18 64.06 399.02 55.15 386 55.15ZM386.07 85.42C380.72 85.42 376.88 81.68 376.88 76.53C376.88 71.28 380.72 67.54 386.07 67.54C391.52 67.54 395.36 71.28 395.36 76.53C395.36 81.68 391.53 85.42 386.07 85.42Z" fill="#002E42"/>
<path fill-rule="evenodd" clip-rule="evenodd" d="M306.48 96.49H267.49V86.45L289.43 65.9H278.75H278.1H270.15V55.95H306.07V65.9L284.29 86.45L295.96 86.53V81.56H306.48V96.49Z" fill="#002E42"/>
<path fill-rule="evenodd" clip-rule="evenodd" d="M0 102.13L58.97 136.18L117.94 102.13V34.04L58.97 0L2.95 32.35C1.82 33 1.12 34.22 1.12 35.52C1.12 36.82 1.82 38.04 2.95 38.69L56.42 69.56V96.53L0 63.96V102.13ZM58.96 130.29L5.09 99.19V72.78L29.144 86.6631L29.14 86.67L58.77 104L89.86 86.06V50.17L58.78 32.23L30.3702 48.6309L7.64 35.51L58.97 5.88L112.83 36.99V99.19L58.96 130.29ZM35.4647 51.5717L58.97 65.14L82.2835 51.6749L58.78 38.11L35.4647 51.5717ZM84.77 56.1216L61.52 69.55V96.5348L84.77 83.12V56.1216Z" fill="#053447"/>
</g>
<defs>
<clipPath id="clip0">
<path d="M0 0H408.18V136.18H0V0Z" fill="white"/>
</clipPath>
</defs>
</svg>
