<svg xmlns="http://www.w3.org/2000/svg" viewBox="6.67 5.03 266.9 283.27"><path d="M1555.75 1158.32c15.51 1.85 30.36 1.93 44.01 0 7.91 18.12 9.26 49.36 2.16 83.38-10.56 50.55-24.86 81.15-54.41 76.39-29.54-4.77-30.63-41.39-20.07-91.95 5.94-28.45 16.52-52.76 28.31-67.82M1302.11 1118.31c21.14-9.27 34.13-15.42 39.22-10.05 3.26 3.35 2.28 9.74-2.76 17.99-10.43 17.03-31.89 34.3-54.67 44-46.56 20.04-102.09 13.38-144.93-17.4-14.14-10.37-27.55-24.72-25.63-33.44.62-2.82 2.74-4.94 7.7-5.63 11.66-1.34 52.41 19.26 99.34 22.14 33.14 2.03 60.59-8.34 81.73-17.61M1259.58 1094.05c-27.52-4.35-42.71-13.42-52.46-21.87-8.32-7.27-13.46-15.3-13.42-20.96.02-2.69 1.19-4.24 2.11-5.01 1.25-1.11 2.74-1.73 4.52-1.73 6.22 0 20.15 5.59 20.15 5.59 38.32 13.71 63.59 12.06 88.64 9.2 13.84-1.55 20.38-2.42 23.42 2.33.89 1.36 1.98 4.31-.79 8.8-6.45 10.47-34.25 28.15-72.17 23.65M1470.1 1004.98c18.69-9.191 39.28-5.582 45.98 8.05 6.7 13.63-3.03 32.13-21.72 41.32-18.7 9.18-39.28 5.58-45.98-8.06-6.7-13.63 3.03-32.12 21.72-41.31M1590.29 1110c-15.19.25-27.79-16.42-28.14-37.25-.36-20.82 11.67-37.92 26.86-38.17 15.19-.26 27.78 16.42 28.14 37.24.35 20.83-11.68 37.92-26.86 38.18M570.207 734.469c-3.777 4.742-9.988 3.293-15.996 1.89-4.195-.968-8.953-2.078-14.164-1.988-11.172.207-20.629 4.988-25.942 13.149-6.917 10.621-6.519 26.46 1.122 44.601 1.027 2.438 2.238 5.16 3.558 8.117 12.184 27.321 32.57 73.063 9.68 116.653-17.227 32.8-45.32 53.23-79.102 57.519-32.429 4.11-65.816-7.922-87.109-31.41-33.598-37.07-38.848-87.5-32.352-105.32 2.383-6.532 6.106-8.34 8.809-8.7 5.719-.781 14.168 3.391 19.465 17.622.383 1.027.887 2.617 1.515 4.636 2.36 7.532 6.754 21.551 13.95 32.793 8.675 13.559 22.191 22.891 38.054 26.289 16.157 3.461 32.676.379 46.504-8.672 23.531-15.41 32.598-44.25 22.547-71.757-5.191-14.231-13.629-41.442-11.769-63.801 3.761-45.262 31.593-63.43 56.601-65.36 24.32-.921 41.313 12.731 45.61 22.711 2.539 5.899.398 9.489-.981 11.028" style="fill:#100f0d;fill-opacity:1;fill-rule:nonzero;stroke:none" transform="matrix(.13333 0 0 -.13333 0 293.33333)"/><path d="M801.355 1565.63c79.301 91.64 176.93 171.31 264.385 216.05 3.02 1.54 6.23-1.74 4.59-4.72-6.94-12.57-20.31-39.49-24.55-59.92-.66-3.18 2.81-5.58 5.49-3.75 54.41 37.09 149.05 76.82 232.06 81.93 3.57.22 5.29-4.35 2.45-6.53-12.62-9.68-26.43-23.08-36.51-36.64-1.71-2.3-.1-5.62 2.77-5.65 58.3-.41 140.47-20.81 194.03-50.85 3.63-2.03 1.04-9.05-3.01-8.12-81.04 18.57-213.69 32.66-351.48-.95-123.014-30-216.908-76.33-285.404-126.14-3.461-2.52-7.621 2.05-4.821 5.29zm394.965-887.868c.01-.024.02-.043.03-.051.01-.039.02-.07.04-.109-.03.046-.05.109-.07.16zm327.04-38.614c2.34.993 3.96 3.684 3.69 6.34-.33 3.274-3.25 5.66-6.53 5.332 0 0-169.24-25.058-329.11 33.469 17.41 56.602 63.72 36.16 133.7 30.512 126.15-7.512 239.22 10.91 322.78 34.898 72.4 20.781 167.51 61.75 241.37 120.039 24.92-54.718 33.71-114.949 33.71-114.949s19.29 3.449 35.4-6.469c15.23-9.371 26.4-28.859 18.78-79.23-15.53-94.102-55.54-170.481-122.77-240.738-40.91-44.051-90.6-82.352-147.44-110.204-30.19-15.859-62.33-29.578-96.29-40.668-253.43-82.769-512.84 8.231-596.47 203.649-6.67 14.691-12.31 30.07-16.766 46.16-35.637 128.77-5.379 283.27 89.196 380.52 0 .011-.02.043-.01.05 5.83 6.192 11.78 13.481 11.78 22.661 0 7.679-4.88 15.781-9.11 21.511-33.08 47.989-147.692 129.769-124.688 288.019 16.523 113.69 115.948 193.77 208.658 189.02 7.83-.4 15.67-.89 23.49-1.35 40.17-2.38 75.22-7.53 108.29-8.92 55.35-2.38 105.12 5.66 164.07 54.78 19.89 16.58 35.83 30.94 62.81 35.51 2.83.48 9.89 3.01 23.99 2.35 14.39-.77 28.09-4.73 40.4-12.92 47.26-31.45 53.96-107.61 56.41-163.33 1.4-31.81 5.24-108.76 6.56-130.85 3-50.51 16.28-57.64 43.15-66.48 15.1-4.97 29.13-8.68 49.79-14.48 62.56-17.57 99.65-35.39 123.03-58.28 13.95-14.3 20.43-29.5 22.43-44 7.38-53.811-41.78-120.291-171.91-180.69-142.25-66.019-314.82-82.738-434.05-69.461-9.15 1.02-41.67 4.699-41.78 4.723-95.37 12.848-149.78-110.422-92.54-194.863 36.89-54.418 137.38-89.848 237.91-89.86 230.51-.039 407.7 98.403 473.6 183.422 1.97 2.539 2.17 2.82 5.27 7.508 3.24 4.891.57 7.582-3.47 4.82-53.84-36.84-293.02-183.109-548.84-139.109 0 0-31.09 5.109-59.47 16.148-22.55 8.774-69.74 30.481-75.48 78.903 206.46-63.852 336.46-3.493 336.46-3.493zM389.367 1129.8c-71.804-13.96-135.086-54.65-173.781-110.86-23.133 19.29-66.223 56.63-73.836 71.18-61.7812 117.32 67.43 345.4 157.688 474.21 223.07 318.33 572.441 559.27 734.172 515.56 26.29-7.44 113.37-108.41 113.37-108.41s-161.664-89.7-311.589-214.73c-202.012-155.55-354.61-381.62-446.024-626.95Zm120.649-538.32c-10.864-1.851-21.953-2.589-33.129-2.32-108.035 2.899-224.731 100.16-236.328 215.5-12.817 127.488 52.324 225.61 167.664 248.87 13.789 2.78 30.453 4.38 48.422 3.45 64.621-3.54 159.851-53.16 181.609-193.941 19.269-124.68-11.336-251.629-128.238-271.559ZM1973.49 817.23c-.93 3.282-6.95 25.309-15.24 51.872-8.28 26.558-16.86 45.25-16.86 45.25 33.23 49.75 33.82 94.238 29.41 119.428-4.72 31.24-17.72 57.85-43.93 85.37-26.21 27.51-79.81 55.68-155.14 76.84-8.62 2.41-37.02 10.21-39.52 10.97-.2 1.63-2.08 93.18-3.8 132.48-1.25 28.41-3.68 72.76-17.44 116.45-16.4 59.13-44.98 110.87-80.65 143.97 98.43 102.03 159.88 214.43 159.73 310.86-.28 185.43-228.01 241.54-508.66 125.33-.29-.13-59.03-25.03-59.46-25.25-.26.26-107.5 105.48-109.11 106.88C792.848 2396.77-207.574 1284.77 112.277 1014.7l69.903-59.212c-18.133-46.968-25.254-100.789-19.438-158.66 7.473-74.316 45.813-145.566 107.953-200.629 58.993-52.258 136.555-85.34 211.821-85.277C606.984 224.082 891.379 48.1211 1224.84 38.2188 1582.53 27.5898 1882.8 195.43 2008.61 496.93c8.23 21.172 43.15 116.511 43.15 200.672 0 84.578-47.81 119.628-78.27 119.628" style="fill:#100f0d;fill-opacity:1;fill-rule:nonzero;stroke:none" transform="matrix(.13333 0 0 -.13333 0 293.33333)"/></svg>